<svg width="15" height="14" fill="none" xmlns="http://www.w3.org/2000/svg"><path d="M2.857 0v14H0V0h2.857zm1.429 0h7.146c.787 0 1.425.629 1.425 1.393v11.214c0 .77-.638 1.393-1.425 1.393H4.286V0zm9.285 2.8H15v2.8h-1.429V2.8zm0 4.2H15v2.8h-1.429V7zm-5 0c.38 0 .743-.147 1.01-.41.268-.263.419-.619.419-.99s-.15-.727-.418-.99a1.443 1.443 0 0 0-1.01-.41c-.38 0-.743.148-1.01.41a1.386 1.386 0 0 0-.42.99c0 .371.151.727.42.99.267.263.63.41 1.01.41zM6.43 9.8h4.285a2.08 2.08 0 0 0-.627-1.485A2.165 2.165 0 0 0 8.57 7.7c-.568 0-1.113.221-1.515.615A2.079 2.079 0 0 0 6.43 9.8z" fill="#F60"/></svg>