<svg width="15" height="14" fill="none" xmlns="http://www.w3.org/2000/svg"><path d="M6.882 0a.566.566 0 0 0-.565.433l-.255 1.193a6.093 6.093 0 0 0-1.636.636L3.35 1.586a.613.613 0 0 0-.73.07l-.857.8a.514.514 0 0 0-.074.681l.73 1.014a5.282 5.282 0 0 0-.677 1.527L.469 5.91A.551.551 0 0 0 0 6.438v1.134c0 .256.2.483.469.532l1.278.233c.143.539.373 1.052.682 1.527l-.724 1.009a.514.514 0 0 0 .069.681l.857.8a.618.618 0 0 0 .735.065l1.082-.676c.51.286 1.058.5 1.635.631l.25 1.188c.054.251.296.438.57.438h1.215a.57.57 0 0 0 .565-.438l.25-1.193a6.09 6.09 0 0 0 1.635-.636l1.082.676a.609.609 0 0 0 .73-.07l.857-.8a.514.514 0 0 0 .074-.681l-.73-1.014c.307-.475.536-.984.677-1.522l1.273-.238c.27-.05.469-.271.469-.527V6.423c0-.255-.2-.482-.469-.532l-1.278-.233a5.274 5.274 0 0 0-.682-1.527l.725-1.004a.52.52 0 0 0-.07-.686l-.857-.8a.62.62 0 0 0-.736-.065l-1.075.681a6.067 6.067 0 0 0-1.641-.631L8.667.433C8.614.18 8.37 0 8.097 0H6.882zm.085.636h1.044l.272 1.298a.312.312 0 0 0 .093.162.349.349 0 0 0 .173.087 5.4 5.4 0 0 1 1.838.705.359.359 0 0 0 .378 0l1.178-.74.74.69-.788 1.095a.304.304 0 0 0-.006.353c.373.524.632 1.1.767 1.715.014.06.047.115.095.159a.35.35 0 0 0 .172.084l1.395.259v.974l-1.39.254a.35.35 0 0 0-.173.087.313.313 0 0 0-.093.161 4.69 4.69 0 0 1-.762 1.716.302.302 0 0 0 .005.353l.794 1.098-.74.691-1.178-.74a.359.359 0 0 0-.378 0 5.387 5.387 0 0 1-1.832.71.348.348 0 0 0-.175.09.312.312 0 0 0-.092.164l-.271 1.303H6.989l-.272-1.298a.311.311 0 0 0-.092-.165.349.349 0 0 0-.174-.088 5.4 5.4 0 0 1-1.838-.707.359.359 0 0 0-.378 0l-1.183.741-.735-.69.788-1.095a.304.304 0 0 0 .006-.352A4.673 4.673 0 0 1 2.344 8a.312.312 0 0 0-.093-.162.349.349 0 0 0-.174-.087L.682 7.492v-.97l1.39-.258a.349.349 0 0 0 .173-.087c.048-.044.08-.1.093-.161.134-.615.392-1.19.762-1.716a.303.303 0 0 0-.005-.348L2.3 2.85l.74-.691 1.178.74a.359.359 0 0 0 .378 0 5.385 5.385 0 0 1 1.832-.71.349.349 0 0 0 .175-.09.312.312 0 0 0 .092-.164L6.967.636zM7.5 3.674C5.54 3.674 3.936 5.17 3.936 7S5.54 10.321 7.5 10.321 11.058 8.83 11.058 7 9.46 3.674 7.5 3.674zm0 .636c1.59 0 2.876 1.205 2.876 2.69 0 1.485-1.285 2.685-2.876 2.685-1.59 0-2.882-1.2-2.882-2.685S5.91 4.31 7.5 4.31z" fill="#F60"/><path fill-rule="evenodd" clip-rule="evenodd" d="M6.967.636h1.044l.272 1.298a.312.312 0 0 0 .093.162.349.349 0 0 0 .173.087 5.4 5.4 0 0 1 1.838.705.359.359 0 0 0 .378 0l1.178-.74.74.69-.788 1.095a.304.304 0 0 0-.006.353c.373.524.632 1.1.767 1.715.014.06.047.115.095.159a.35.35 0 0 0 .172.084l1.395.259v.974l-1.39.254a.35.35 0 0 0-.173.087.313.313 0 0 0-.093.161 4.69 4.69 0 0 1-.762 1.716.302.302 0 0 0 .005.353l.794 1.098-.74.691-1.178-.74a.359.359 0 0 0-.378 0 5.387 5.387 0 0 1-1.832.71.348.348 0 0 0-.175.09.312.312 0 0 0-.092.164l-.271 1.303H6.989l-.272-1.298a.311.311 0 0 0-.092-.165.349.349 0 0 0-.174-.088 5.4 5.4 0 0 1-1.838-.707.359.359 0 0 0-.378 0l-1.183.741-.735-.69.788-1.095a.304.304 0 0 0 .006-.352A4.673 4.673 0 0 1 2.344 8a.312.312 0 0 0-.093-.162.349.349 0 0 0-.174-.087L.682 7.492v-.97l1.39-.258a.349.349 0 0 0 .173-.087c.048-.044.08-.1.093-.161.134-.615.392-1.19.762-1.716a.303.303 0 0 0-.005-.348L2.3 2.85l.74-.691 1.178.74a.359.359 0 0 0 .378 0 5.385 5.385 0 0 1 1.832-.71.349.349 0 0 0 .175-.09.312.312 0 0 0 .092-.164L6.967.636zM3.937 7c0-1.83 1.603-3.326 3.563-3.326 1.96 0 3.558 1.496 3.558 3.326S9.46 10.321 7.5 10.321C5.54 10.321 3.936 8.83 3.936 7z" fill="#F60"/></svg>