<svg width="21" height="18" fill="none" xmlns="http://www.w3.org/2000/svg"><path d="m19.016 10.636-1.135-.232a.095.095 0 0 0-.112.074 7.454 7.454 0 0 1-.605 1.778 7.378 7.378 0 0 1-4.257 3.767 7.428 7.428 0 0 1-2.425.408 7.358 7.358 0 0 1-3.25-.756 7.369 7.369 0 0 1-3.63-3.882l1.555.758a.093.093 0 0 0 .072.005.093.093 0 0 0 .054-.048l.508-1.041a.095.095 0 0 0-.044-.127L2.32 9.668a.095.095 0 0 0-.127.043L.865 12.413a.082.082 0 0 0-.006.016l-.034.07-.315.644a.095.095 0 0 0 .043.127l.272.133.768.376a.095.095 0 0 0 .127-.043l.668-1.363c.284.683.65 1.323 1.089 1.908a8.682 8.682 0 0 0 3.164 2.606 8.724 8.724 0 0 0 3.847.89c.97 0 1.932-.161 2.857-.48a8.74 8.74 0 0 0 5.133-4.668c.274-.603.48-1.237.612-1.882a.094.094 0 0 0-.074-.111zM20.495 4.776a.094.094 0 0 0-.048-.055l-.271-.134-.768-.378a.094.094 0 0 0-.072-.005.097.097 0 0 0-.055.048l-.685 1.39a8.741 8.741 0 0 0-4.261-4.53 8.721 8.721 0 0 0-3.847-.89c-.971 0-1.932.16-2.858.48a8.75 8.75 0 0 0-5.03 4.45 8.804 8.804 0 0 0-.71 2.08.093.093 0 0 0 .074.112l1.134.234a.095.095 0 0 0 .111-.073c.125-.607.328-1.2.602-1.762A7.38 7.38 0 0 1 8.07 1.976a7.432 7.432 0 0 1 2.425-.409c1.128 0 2.222.255 3.25.756a7.39 7.39 0 0 1 3.61 3.843l-1.513-.73a.095.095 0 0 0-.127.045l-.503 1.043a.095.095 0 0 0 .044.127l3.428 1.651c.013.007.027.01.04.01.036 0 .07-.02.086-.053l1.366-2.773.315-.638a.093.093 0 0 0 .005-.072z" fill="#fff"/><path fill-rule="evenodd" clip-rule="evenodd" d="M.825 13.403v-.904l.034-.07a.082.082 0 0 1 .006-.016l1.327-2.702a.095.095 0 0 1 .127-.043l3.428 1.672c.048.023.067.08.044.127l-.508 1.04a.093.093 0 0 1-.054.049.093.093 0 0 1-.072-.005l-1.554-.758a7.369 7.369 0 0 0 3.629 3.882 7.358 7.358 0 0 0 3.25.756c.821 0 1.637-.137 2.425-.408a7.378 7.378 0 0 0 4.344-3.952 7.454 7.454 0 0 0 .518-1.593.095.095 0 0 1 .041-.06c.021-.014.047-.019.071-.014l1.135.232c.051.01.085.06.074.11a8.794 8.794 0 0 1-.714 2.1 8.74 8.74 0 0 1-5.03 4.45 8.758 8.758 0 0 1-6.705-.409 8.682 8.682 0 0 1-3.164-2.606 8.787 8.787 0 0 1-1.09-1.908l-.667 1.363a.095.095 0 0 1-.127.043l-.768-.376zm19.35-7.917v-.899l-.767-.378a.094.094 0 0 0-.072-.005.097.097 0 0 0-.055.048l-.685 1.39a8.741 8.741 0 0 0-4.261-4.53 8.721 8.721 0 0 0-3.847-.89c-.971 0-1.932.16-2.858.48a8.75 8.75 0 0 0-5.03 4.45 8.804 8.804 0 0 0-.71 2.08.093.093 0 0 0 .074.112l1.134.234a.095.095 0 0 0 .111-.073c.125-.607.328-1.2.602-1.762A7.38 7.38 0 0 1 8.07 1.976a7.432 7.432 0 0 1 2.425-.409c1.128 0 2.222.255 3.25.756a7.39 7.39 0 0 1 3.61 3.843l-1.513-.73a.095.095 0 0 0-.127.045l-.503 1.043a.095.095 0 0 0 .044.127l3.428 1.651c.013.007.027.01.04.01.036 0 .07-.02.086-.053l1.366-2.773z" fill="#fff"/></svg>